<?xml version="1.0" encoding="utf-8"?>
<svg version="1.1" id="HuntIcon" xmlns="http://www.w3.org/2000/svg" xmlns:xlink="http://www.w3.org/1999/xlink" x="0px" y="0px" xml:space="preserve">
<g>
    <polygon style="fill:#BB2222;" points="111.956,20.526 92.486,1.05 0,93.537 19.47,113.013 55.922,76.555 119.606,139.941 139.04,120.435 75.391,57.085"/>
    <polygon style="fill:#BB2222;" points="227.045,20.526 263.61,57.085 199.962,120.435 219.396,139.941 283.08,76.555 319.532,113.013 339.002,93.537 246.515,1.05"/>
    <polygon style="fill:#BB2222;" points="283.08,262.447 219.396,199.055 199.962,218.566 263.61,281.917 227.045,318.476 246.515,337.952 339.002,245.465 319.532,225.989"/>
    <polygon style="fill:#BB2222;" points="119.606,199.055 55.922,262.447 19.47,225.989 0,245.465 92.486,337.952 111.956,318.476 75.391,281.917 139.04,218.566"/>
    <circle style="fill:#BB2222;" cx="168" cy="169" r="18"/>
</g>
</svg>
